<svg width="304" height="304" xmlns="http://www.w3.org/2000/svg" xmlns:xlink="http://www.w3.org/1999/xlink" xml:space="preserve" overflow="hidden"><g transform="translate(-384 -208)"><path d="M536 208C452.071 208 384 276.058 384 360 384 427.159 427.548 484.133 487.955 504.235 495.543 505.641 498 500.929 498 496.927L498 468.629C455.719 477.825 446.915 450.693 446.915 450.693 439.999 433.125 430.031 428.451 430.031 428.451 416.237 419.014 431.082 419.217 431.082 419.217 446.345 420.281 454.376 434.885 454.376 434.885 467.929 458.116 489.931 451.403 498.608 447.514 499.963 437.697 503.903 430.984 508.26 427.197 474.503 423.333 439.011 410.299 439.011 352.071 439.011 335.465 444.952 321.911 454.667 311.271 453.097 307.433 447.891 291.967 456.149 271.042 456.149 271.042 468.917 266.963 497.962 286.622 510.084 283.253 523.08 281.568 536 281.505 548.92 281.568 561.929 283.253 574.076 286.622 603.095 266.963 615.838 271.042 615.838 271.042 624.109 291.98 618.903 307.446 617.333 311.271 627.086 321.911 632.976 335.477 632.976 352.071 632.976 410.451 597.421 423.308 563.575 427.07 569.022 431.782 574 441.029 574 455.215L574 496.927C574 500.967 576.432 505.717 584.146 504.223 644.503 484.095 688 427.133 688 360 688 276.058 619.942 208 536 208Z" fill="#FFFFFF"/></g></svg>