<svg width="158" height="158" xmlns="http://www.w3.org/2000/svg" xmlns:xlink="http://www.w3.org/1999/xlink" xml:space="preserve" overflow="hidden"><g transform="translate(-74 -60)"><path d="M153 74.2398C174.093 74.2398 176.595 74.3187 184.929 74.7006 206.338 75.6749 216.338 85.833 217.313 107.084 217.694 115.412 217.767 117.914 217.767 139.007 217.767 160.106 217.688 162.601 217.313 170.929 216.332 192.16 206.358 202.338 184.929 203.313 176.595 203.694 174.106 203.773 153 203.773 131.907 203.773 129.405 203.694 121.077 203.313 99.6158 202.332 89.6683 192.128 88.694 170.923 88.3122 162.595 88.2332 160.1 88.2332 139 88.2332 117.907 88.3187 115.412 88.694 107.077 89.6749 85.833 99.6487 75.6683 121.077 74.694 129.412 74.3187 131.907 74.2398 153 74.2398ZM153 60C131.545 60 128.859 60.0922 120.432 60.474 91.7421 61.7907 75.7972 77.7092 74.4806 106.426 74.0922 114.859 74 117.545 74 139 74 160.455 74.0922 163.148 74.474 171.574 75.7907 200.264 91.7092 216.209 120.426 217.526 128.859 217.908 131.545 218 153 218 174.455 218 177.148 217.908 185.574 217.526 214.238 216.209 230.223 200.291 231.519 171.574 231.908 163.148 232 160.455 232 139 232 117.545 231.908 114.859 231.526 106.432 230.236 77.7684 214.297 61.7972 185.581 60.4806 177.148 60.0922 174.455 60 153 60ZM153 98.4335C130.597 98.4335 112.434 116.597 112.434 139 112.434 161.403 130.597 179.573 153 179.573 175.403 179.573 193.566 161.41 193.566 139 193.566 116.597 175.403 98.4335 153 98.4335ZM153 165.333C138.457 165.333 126.667 153.549 126.667 139 126.667 124.457 138.457 112.667 153 112.667 167.543 112.667 179.333 124.457 179.333 139 179.333 153.549 167.543 165.333 153 165.333ZM195.173 87.3538C189.933 87.3538 185.686 91.6 185.686 96.8337 185.686 102.068 189.933 106.314 195.173 106.314 200.407 106.314 204.646 102.068 204.646 96.8337 204.646 91.6 200.407 87.3538 195.173 87.3538Z" fill="#FFFFFF"/></g></svg>