<svg width="235" height="235" xmlns="http://www.w3.org/2000/svg" xmlns:xlink="http://www.w3.org/1999/xlink" xml:space="preserve" overflow="hidden"><g transform="translate(-990 -39)"><path d="M1176.04 39 1038.96 39C1011.92 39 990 60.9235 990 87.9583L990 225.042C990 252.076 1011.92 274 1038.96 274L1176.04 274C1203.09 274 1225 252.076 1225 225.042L1225 87.9583C1225 60.9235 1203.09 39 1176.04 39ZM1068.33 225.042 1038.96 225.042 1038.96 117.333 1068.33 117.333 1068.33 225.042ZM1053.65 104.918C1044.19 104.918 1036.51 97.1821 1036.51 87.645 1036.51 78.1079 1044.19 70.3725 1053.65 70.3725 1063.1 70.3725 1070.78 78.1079 1070.78 87.645 1070.78 97.1821 1063.11 104.918 1053.65 104.918ZM1185.83 225.042 1156.46 225.042 1156.46 170.169C1156.46 137.191 1117.29 139.688 1117.29 170.169L1117.29 225.042 1087.92 225.042 1087.92 117.333 1117.29 117.333 1117.29 134.616C1130.96 109.294 1185.83 107.424 1185.83 158.86L1185.83 225.042Z" fill="#FFFFFF"/></g></svg>