<svg width="184" height="189" xmlns="http://www.w3.org/2000/svg" xmlns:xlink="http://www.w3.org/1999/xlink" xml:space="preserve" overflow="hidden"><g transform="translate(-1688 -1143)"><path d="M1688 1237.5C1688 1185.31 1729.19 1143 1780 1143 1830.81 1143 1872 1185.31 1872 1237.5 1872 1289.69 1830.81 1332 1780 1332 1729.19 1332 1688 1289.69 1688 1237.5Z" fill-rule="evenodd"/><g><g><g><g><path d="M96.3351 69.3747C96.3351 69.1472 89.1366 75.2138 85.7648 78.1328 85.7269 88.1425 85.689 98.1515 85.6511 108.161L95.9946 108.275C95.9567 105.28 95.9188 102.285 95.8809 99.2891L100.541 94.8533 116.227 109.071 116.34 95.9909 108.043 88.37 127.138 70.1708 112.817 70.1708 95.9946 85.6399C95.9567 80.2183 96.3351 69.6022 96.3351 69.3747Z" fill="#FFFFFF" fill-rule="evenodd" transform="matrix(1.01118 0 0 1 1610.39 1147.71)"/><path d="M124.61 78.1685 124.837 108.238 134.825 107.897 134.825 85.657 161.042 109.146 161.042 70.2254 150.714 70.1119 150.714 86.4518 133.463 70.2254 124.61 78.1685Z" fill="#FFFFFF" fill-rule="evenodd" transform="matrix(1.01118 0 0 1 1610.39 1147.71)"/><path d="M138.439 93.4578 138.439 108.105 155.837 108.105 138.439 93.4578Z" fill="#FFFFFF" fill-rule="evenodd" transform="matrix(1.01118 0 0 1 1610.39 1147.71)"/><path d="M249.816 70.4304 234.824 70.5441 224.83 79.2941 214.04 69.2941 206.884 75.6577 217.447 86.112 206.544 95.7716 206.544 109.294 224.943 92.8169 243.001 109.181 242.888 95.7716 232.326 86.2258 249.816 70.4304Z" fill="#FFFFFF" fill-rule="evenodd" transform="matrix(1.01118 0 0 1 1610.39 1147.71)"/><path d="M183.946 78.8644C180.771 78.9402 175.598 80.7759 175.56 88.9715 175.522 97.1664 180.09 99.608 183.719 99.4184 187.348 99.2296 192.332 97.9768 191.877 88.5172 191.877 81.7826 187.12 78.7886 183.946 78.8644ZM183.775 69.6661C189.783 69.6283 201.855 72.8859 202.082 89.312 202.196 104.829 189.783 108.693 184.003 108.844 178.223 108.995 165.392 105.267 165.354 89.5388 165.316 73.8111 177.768 69.704 183.775 69.6661Z" fill="#FFFFFF" fill-rule="evenodd" transform="matrix(1.01118 0 0 1 1610.39 1147.71)"/></g></g></g></g></g></svg>