<svg width="530" height="252" xmlns="http://www.w3.org/2000/svg" xmlns:xlink="http://www.w3.org/1999/xlink" xml:space="preserve" overflow="hidden"><g transform="translate(-1951 -1336)"><path d="M1959 1444C1959 1405.89 1989.89 1375 2028 1375 2066.11 1375 2097 1405.89 2097 1444 2097 1482.11 2066.11 1513 2028 1513 1989.89 1513 1959 1482.11 1959 1444Z" fill="#404040" fill-rule="evenodd"/><text fill="#FFFFFF" font-family="Calibri,Calibri_MSFontService,sans-serif" font-weight="700" font-size="87" transform="matrix(1 0 0 1 2004.35 1473)">K</text><text fill="#FFFFFF" font-family="Calibri,Calibri_MSFontService,sans-serif" font-weight="700" font-size="119" transform="matrix(1 0 0 1 2152.16 1485)">Y</text><text fill="#FFFFFF" font-family="Calibri,Calibri_MSFontService,sans-serif" font-weight="700" font-size="101" transform="matrix(1 0 0 1 2209.45 1485)">U</text><text fill="#FFFFFF" font-family="Calibri,Calibri_MSFontService,sans-serif" font-weight="700" font-size="119" transform="matrix(1 0 0 1 2270.76 1485)">B</text><text fill="#FFFFFF" font-family="Calibri,Calibri_MSFontService,sans-serif" font-weight="700" font-size="101" transform="matrix(1 0 0 1 2333.2 1485)">O</text></g></svg>