<svg width="1096" height="1113" xmlns="http://www.w3.org/2000/svg" xmlns:xlink="http://www.w3.org/1999/xlink" xml:space="preserve" overflow="hidden"><g transform="translate(-1658 -667)"><path d="M5.83578-3.63446 187.45 287.98 175.779 295.249-5.83578 3.63446ZM-11.6716 7.26893C-15.6861 0.822909-13.715-7.65703-7.26893-11.6716-0.822909-15.6861 7.65703-13.715 11.6716-7.26893 15.6861-0.822909 13.715 7.65703 7.26893 11.6716 0.822909 15.6861-7.65703 13.715-11.6716 7.26893ZM193.286 284.345C197.3 290.792 195.329 299.271 188.883 303.286 182.437 307.3 173.957 305.329 169.943 298.883 165.928 292.437 167.899 283.957 174.345 279.943 180.791 275.928 189.271 277.899 193.286 284.345Z" fill="#FFFFFF" transform="matrix(-1 0 0 1 1988.61 751)"/><path d="M1994.67 747.115 2187.74 1028.99 2176.4 1036.76 1983.33 754.885ZM1977.66 758.77C1973.36 752.505 1974.96 743.947 1981.23 739.656 1987.49 735.365 1996.05 736.965 2000.34 743.23 2004.64 749.495 2003.04 758.053 1996.77 762.344 1990.51 766.635 1981.95 765.035 1977.66 758.77ZM2193.42 1025.1C2197.71 1031.37 2196.11 1039.93 2189.84 1044.22 2183.58 1048.51 2175.02 1046.91 2170.73 1040.65 2166.44 1034.38 2168.04 1025.82 2174.3 1021.53 2180.57 1017.24 2189.13 1018.84 2193.42 1025.1Z" fill="#FFFFFF"/><path d="M1781.06 728.44 1963.82 785.731 1959.7 798.852 1776.94 741.56ZM1774.89 748.12C1767.64 745.849 1763.61 738.133 1765.88 730.887 1768.15 723.641 1775.87 719.608 1783.11 721.88 1790.36 724.151 1794.39 731.867 1792.12 739.113 1789.85 746.359 1782.13 750.392 1774.89 748.12ZM1965.87 779.171C1973.12 781.443 1977.15 789.158 1974.88 796.405 1972.61 803.651 1964.89 807.684 1957.65 805.412 1950.4 803.141 1946.37 795.425 1948.64 788.179 1950.91 780.932 1958.63 776.9 1965.87 779.171Z" fill="#FFFFFF"/><path d="M0.157639-6.87319 374.845 1.72038 374.53 15.4668-0.157639 6.87319ZM-0.315278 13.7464C-7.9072 13.5723-13.9205 7.27664-13.7464-0.315278-13.5723-7.9072-7.27664-13.9205 0.315278-13.7464 7.9072-13.5723 13.9205-7.27664 13.7464 0.315278 13.5723 7.9072 7.27664 13.9205-0.315278 13.7464ZM375.002-5.15282C382.594-4.97869 388.608 1.31693 388.434 8.90885 388.259 16.5008 381.964 22.5141 374.372 22.34 366.78 22.1658 360.767 15.8702 360.941 8.27829 361.115 0.686372 367.41-5.32694 375.002-5.15282Z" fill="#FFFFFF" transform="matrix(1 0 0 -1 1807 1040.59)"/><path d="M5.08549-4.62638 380.346 407.874 370.175 417.126-5.08549 4.62638ZM-10.171 9.25277C-15.2811 3.63549-14.87-5.06082-9.25277-10.171-3.63549-15.2811 5.06082-14.87 10.171-9.25277 15.2811-3.63549 14.87 5.06082 9.25277 10.171 3.63549 15.2811-5.06082 14.87-10.171 9.25277ZM385.432 403.247C390.542 408.865 390.131 417.561 384.513 422.671 378.896 427.781 370.2 427.37 365.09 421.753 359.979 416.135 360.391 407.439 366.008 402.329 371.625 397.219 380.321 397.63 385.432 403.247Z" fill="#FFFFFF" transform="matrix(-1 0 0 1 2392.26 1353)"/><path d="M1785.85 735.383 1813.35 1040.75 1799.65 1041.98 1772.15 736.617ZM1765.31 737.233C1764.62 729.67 1770.2 722.987 1777.77 722.305 1785.33 721.624 1792.01 727.203 1792.69 734.767 1793.38 742.33 1787.8 749.013 1780.23 749.695 1772.67 750.376 1765.99 744.797 1765.31 737.233ZM1820.19 1040.13C1820.88 1047.69 1815.3 1054.38 1807.73 1055.06 1800.17 1055.74 1793.49 1050.16 1792.81 1042.6 1792.12 1035.03 1797.7 1028.35 1805.27 1027.67 1812.83 1026.99 1819.51 1032.57 1820.19 1040.13Z" fill="#FFFFFF"/><path d="M5.12226-4.58564 112.831 115.727 102.586 124.898-5.12226 4.58564ZM-10.2445 9.17128C-15.3097 3.51339-14.8292-5.17935-9.17128-10.2445-3.51339-15.3097 5.17935-14.8292 10.2445-9.17128 15.3097-3.51339 14.8292 5.17935 9.17128 10.2445 3.51339 15.3097-5.17935 14.8292-10.2445 9.17128ZM117.953 111.141C123.018 116.799 122.538 125.492 116.88 130.557 111.222 135.622 102.529 135.142 97.4638 129.484 92.3987 123.826 92.8792 115.133 98.5371 110.068 104.195 105.003 112.888 105.483 117.953 111.141Z" fill="#FFFFFF" transform="matrix(-1 0 0 1 1779.71 735)"/><path d="M0.0687466-6.87466 114.652-5.72882 114.515 8.02049-0.0687466 6.87466ZM-0.137493 13.7493C-7.73103 13.6734-13.8252 7.45604-13.7493-0.137493-13.6734-7.73103-7.45604-13.8252 0.137493-13.7493 7.73103-13.6734 13.8252-7.45604 13.7493 0.137493 13.6734 7.73103 7.45604 13.8252-0.137493 13.7493ZM114.721-12.6035C122.314-12.5275 128.409-6.31021 128.333 1.28333 128.257 8.87686 122.039 14.9711 114.446 14.8951 106.852 14.8192 100.758 8.60188 100.834 1.00834 100.91-6.5852 107.127-12.6794 114.721-12.6035Z" fill="#FFFFFF" transform="matrix(1 0 0 -1 1672 855.146)"/><path d="M1.85123-6.62107 229.299 56.9725 225.597 70.2146-1.85123 6.62107ZM-3.70245 13.2421C-11.0159 11.1973-15.287 3.61098-13.2421-3.70245-11.1973-11.0159-3.61098-15.287 3.70245-13.2421 11.0159-11.1973 15.287-3.61098 13.2421 3.70245 11.1973 11.0159 3.61098 15.287-3.70245 13.2421ZM231.15 50.3514C238.464 52.3962 242.735 59.9826 240.69 67.296 238.645 74.6095 231.059 78.8805 223.745 76.8357 216.432 74.7909 212.161 67.2046 214.206 59.8911 216.25 52.5777 223.837 48.3066 231.15 50.3514Z" fill="#FFFFFF" transform="matrix(1 0 0 -1 1989 745.594)"/><path d="M6.83511-0.739536 44.6476 348.74 30.9774 350.219-6.83511 0.739536ZM-13.6702 1.47907C-14.4871-6.07078-9.02892-12.8533-1.47907-13.6702 6.07078-14.4871 12.8533-9.02892 13.6702-1.47907 14.4871 6.07078 9.02892 12.8533 1.47907 13.6702-6.07078 14.4871-12.8533 9.02892-13.6702 1.47907ZM51.4827 348C52.2996 355.55 46.8414 362.333 39.2916 363.149 31.7417 363.966 24.9592 358.508 24.1423 350.958 23.3254 343.408 28.7836 336.626 36.3334 335.809 43.8833 334.992 50.6658 340.45 51.4827 348Z" fill="#FFFFFF" transform="matrix(-1 0 0 1 2215.81 682)"/><path d="M2217.43 674.275 2741.07 785.421 2738.22 798.871 2214.57 687.725ZM2213.15 694.45C2205.72 692.874 2200.97 685.573 2202.55 678.145 2204.13 670.717 2211.43 665.973 2218.86 667.55 2226.28 669.126 2231.03 676.426 2229.45 683.855 2227.87 691.283 2220.57 696.027 2213.15 694.45ZM2742.5 778.696C2749.93 780.272 2754.67 787.573 2753.1 795.001 2751.52 802.429 2744.22 807.173 2736.79 805.596 2729.36 804.02 2724.62 796.72 2726.2 789.291 2727.77 781.863 2735.07 777.119 2742.5 778.696Z" fill="#FFFFFF"/><path d="M2.75258-6.29992 561.346 237.762 555.841 250.362-2.75258 6.29992ZM-5.50516 12.5998C-12.4639 9.55942-15.6402 1.45354-12.5998-5.50516-9.55942-12.4639-1.45354-15.6402 5.50516-12.5998 12.4639-9.55942 15.6402-1.45354 12.5998 5.50516 9.55942 12.4639 1.45354 15.6402-5.50516 12.5998ZM564.099 231.462C571.057 234.503 574.234 242.609 571.193 249.567 568.153 256.526 560.047 259.702 553.088 256.662 546.13 253.622 542.953 245.516 545.994 238.557 549.034 231.598 557.14 228.422 564.099 231.462Z" fill="#FFFFFF" transform="matrix(-1 0 0 1 2739.59 787)"/><path d="M1810.22 1036.93 2395.17 1347.45 2388.72 1359.59 1803.78 1049.07ZM1800.55 1055.14C1793.85 1051.58 1791.29 1043.26 1794.86 1036.55 1798.42 1029.85 1806.74 1027.29 1813.45 1030.85 1820.15 1034.42 1822.71 1042.74 1819.15 1049.45 1815.58 1056.15 1807.26 1058.71 1800.55 1055.14ZM2398.4 1341.38C2405.1 1344.94 2407.65 1353.26 2404.09 1359.97 2400.53 1366.68 2392.21 1369.23 2385.5 1365.67 2378.79 1362.1 2376.24 1353.78 2379.8 1347.07 2383.36 1340.37 2391.69 1337.82 2398.4 1341.38Z" fill="#FFFFFF"/><path d="M2186.73 1032.19 2397.56 1349.3 2386.11 1356.92 2175.27 1039.81ZM2169.55 1043.61C2165.35 1037.29 2167.06 1028.75 2173.39 1024.55 2179.71 1020.35 2188.25 1022.06 2192.45 1028.39 2196.65 1034.71 2194.94 1043.25 2188.61 1047.45 2182.29 1051.65 2173.75 1049.94 2169.55 1043.61ZM2403.28 1345.5C2407.49 1351.82 2405.77 1360.36 2399.45 1364.56 2393.12 1368.76 2384.59 1367.05 2380.38 1360.72 2376.18 1354.4 2377.9 1345.86 2384.22 1341.66 2390.54 1337.45 2399.08 1339.17 2403.28 1345.5Z" fill="#FFFFFF"/><path d="M2020.88 1158.97 2023.17 1765.69 2009.42 1765.74 2007.12 1159.03ZM2000.25 1159.05C2000.22 1151.46 2006.35 1145.28 2013.95 1145.25 2021.54 1145.22 2027.72 1151.35 2027.75 1158.95 2027.78 1166.54 2021.65 1172.72 2014.05 1172.75 2006.46 1172.78 2000.28 1166.65 2000.25 1159.05ZM2030.04 1765.67C2030.07 1773.26 2023.94 1779.44 2016.34 1779.47 2008.75 1779.5 2002.57 1773.36 2002.54 1765.77 2002.51 1758.18 2008.65 1752 2016.24 1751.97 2023.83 1751.94 2030.01 1758.07 2030.04 1765.67Z" fill="#FFFFFF"/></g></svg>